<?xml version="1.0" encoding="utf-8"?>
<!-- Generator: Adobe Illustrator 16.0.4, SVG Export Plug-In . SVG Version: 6.00 Build 0)  -->
<!DOCTYPE svg PUBLIC "-//W3C//DTD SVG 1.0//EN" "http://www.w3.org/TR/2001/REC-SVG-20010904/DTD/svg10.dtd">
<svg version="1.0" id="Layer_2" xmlns="http://www.w3.org/2000/svg" xmlns:xlink="http://www.w3.org/1999/xlink" x="0px" y="0px"
	 width="48px" height="48px" viewBox="0 0 48 48" enable-background="new 0 0 48 48" xml:space="preserve">
<circle cx="24" cy="24" r="8.325"/>
<g>
	<path d="M5.845,32.437c-0.128,0-0.256-0.036-0.367-0.108c-0.193-0.125-0.309-0.339-0.308-0.568l0.04-15.121
		c0-0.229,0.118-0.443,0.312-0.567c0.194-0.123,0.438-0.14,0.646-0.044l5.926,2.727c0.24,0.11,0.394,0.351,0.393,0.615l-0.021,9.708
		c0,0.266-0.156,0.505-0.397,0.614l-5.945,2.687C6.034,32.417,5.939,32.437,5.845,32.437z"/>
</g>
<g>
	<path d="M42.115,32.437c-0.096,0-0.192-0.021-0.282-0.062l-5.927-2.728c-0.24-0.11-0.394-0.351-0.393-0.615l0.021-9.708
		c0-0.265,0.155-0.505,0.396-0.614l5.945-2.686c0.209-0.094,0.452-0.077,0.646,0.049c0.192,0.125,0.309,0.339,0.308,0.568
		l-0.04,15.122c0,0.229-0.118,0.443-0.312,0.567C42.368,32.401,42.242,32.437,42.115,32.437z"/>
</g>
<g>
	<path d="M13.559,16.693c-0.138,0-0.275-0.042-0.392-0.125l-5.31-3.79c-0.187-0.133-0.293-0.353-0.282-0.582
		c0.011-0.229,0.138-0.438,0.337-0.552l13.094-7.562c0.198-0.116,0.441-0.121,0.646-0.016c0.205,0.105,0.341,0.307,0.363,0.536
		l0.62,6.493c0.025,0.263-0.105,0.516-0.334,0.648l-8.405,4.859C13.792,16.664,13.675,16.693,13.559,16.693z"/>
</g>
<g>
	<path d="M26.735,44.411c-0.106,0-0.212-0.024-0.31-0.075c-0.204-0.104-0.341-0.307-0.362-0.535l-0.62-6.494
		c-0.025-0.264,0.105-0.517,0.334-0.648l8.404-4.859c0.228-0.132,0.515-0.119,0.73,0.034l5.31,3.791
		c0.187,0.134,0.293,0.353,0.281,0.582c-0.011,0.229-0.138,0.438-0.336,0.553l-13.094,7.562
		C26.969,44.381,26.853,44.411,26.735,44.411z"/>
</g>
<g>
	<path d="M34.473,16.732c-0.118,0-0.237-0.031-0.344-0.094l-8.355-4.944c-0.228-0.135-0.355-0.391-0.327-0.654l0.701-6.486
		c0.024-0.228,0.163-0.428,0.369-0.531c0.204-0.103,0.449-0.094,0.646,0.023l13.01,7.708c0.198,0.117,0.322,0.327,0.331,0.556
		c0.008,0.229-0.101,0.448-0.29,0.579l-5.355,3.722C34.742,16.692,34.607,16.732,34.473,16.732z"/>
</g>
<g>
	<path d="M21.261,44.449c-0.119,0-0.238-0.031-0.344-0.094l-13.01-7.706c-0.198-0.117-0.322-0.327-0.331-0.557
		c-0.009-0.229,0.101-0.447,0.289-0.579l5.357-3.724c0.215-0.151,0.501-0.161,0.729-0.026l8.355,4.944
		c0.228,0.135,0.356,0.391,0.327,0.653l-0.702,6.485c-0.024,0.229-0.164,0.429-0.369,0.531
		C21.468,44.426,21.364,44.449,21.261,44.449z"/>
</g>
</svg>
