<?xml version="1.0" encoding="utf-8"?>
<!-- Generator: Adobe Illustrator 16.0.4, SVG Export Plug-In . SVG Version: 6.00 Build 0)  -->
<!DOCTYPE svg PUBLIC "-//W3C//DTD SVG 1.0//EN" "http://www.w3.org/TR/2001/REC-SVG-20010904/DTD/svg10.dtd">
<svg version="1.0" id="Layer_1" xmlns="http://www.w3.org/2000/svg" xmlns:xlink="http://www.w3.org/1999/xlink" x="0px" y="0px"
	 width="48px" height="48px" viewBox="0 0 48 48" enable-background="new 0 0 48 48" xml:space="preserve">
<g>
	<path d="M3.487,9.588c2.491,0,4.981,0,7.606,0c-0.13,0.187-0.181,0.348-0.272,0.377
		c-0.919,0.288-1.182,1.188-0.919,2.078c0.262,0.884,0.559,1.762,0.909,2.615c1.998,4.871,4.016,9.733,6.028,14.598
		c0.045,0.109,0.101,0.214,0.188,0.399c0.09-0.2,0.155-0.335,0.213-0.473c2.303-5.455,4.611-10.908,6.895-16.371
		c0.218-0.521,0.335-1.101,0.406-1.666c0.077-0.613-0.192-0.937-0.761-1.171c-0.116-0.048-0.198-0.179-0.37-0.342
		c2.517,0,4.885,0,7.368,0c-0.113,0.156-0.167,0.315-0.271,0.361c-0.972,0.425-1.562,1.207-1.976,2.133
		c-1.203,2.69-2.392,5.387-3.58,8.084c-2.478,5.628-4.951,11.258-7.43,16.885c-0.081,0.183-0.103,0.408-0.41,0.415
		c-0.292,0.007-0.42-0.104-0.532-0.36c-1.38-3.139-2.771-6.274-4.161-9.409c-2.194-4.948-4.385-9.897-6.59-14.839
		C5.53,12.231,5.18,11.578,4.8,10.95c-0.294-0.485-0.699-0.882-1.313-0.959C3.487,9.856,3.487,9.722,3.487,9.588z"/>
	<path d="M44.674,36.296c-2.41-0.017-4.82-0.034-7.231-0.049
		c-0.174-0.001-0.35,0.029-0.521,0.013c-0.082-0.008-0.184-0.08-0.222-0.151c-0.021-0.038,0.062-0.185,0.122-0.203
		c1.417-0.44,1.607-1.64,1.733-2.847c0.084-0.798,0.103-1.605,0.104-2.408c0.005-5.454,0.012-10.907-0.021-16.361
		c-0.005-0.903-0.149-1.814-0.318-2.704c-0.147-0.779-0.616-1.354-1.411-1.615c-0.106-0.035-0.176-0.181-0.262-0.276
		c0.025-0.036,0.05-0.071,0.075-0.106c2.65,0,5.301,0,7.951,0c0,0.107,0,0.214,0,0.322c-0.957,0.214-1.527,0.838-1.702,1.768
		c-0.163,0.864-0.3,1.749-0.306,2.625c-0.032,5.062-0.022,10.125-0.024,15.188c-0.001,0.79-0.037,1.585,0.031,2.369
		c0.078,0.889,0.19,1.785,0.41,2.647c0.196,0.772,0.756,1.274,1.591,1.387C44.674,36.027,44.674,36.161,44.674,36.296z"/>
</g>
</svg>
