<?xml version="1.0" encoding="UTF-8" standalone="no"?>
<svg
   xmlns="http://www.w3.org/2000/svg"
   x="0px"
   y="0px"
   viewBox="0 0 110 110"
   enable-background="new 0 0 110 110">
  <path
     d="m 3.688751,56.689355 9.670545,-33.374233 28.858731,19.350724 -11.76965,4.283802 c 0.04157,0.155139 0.09134,0.332831 0.153864,0.560157 0.192686,0.672664 0.44415,1.632546 0.814685,2.793851 0.357128,1.180019 0.829226,2.561889 1.441833,4.119288 0.287981,0.791221 0.674211,1.577543 1.03552,2.447429 0.41213,0.831169 0.821974,1.729149 1.314007,2.624883 0.504075,0.884966 1.000226,1.838796 1.617597,2.748504 0.302663,0.460239 0.589701,0.950641 0.919364,1.414887 0.33718,0.461511 0.679573,0.928572 1.026924,1.403407 0.672924,0.974624 1.514722,1.843087 2.294698,2.822378 0.432693,0.449094 0.870258,0.902799 1.311755,1.361459 0.444657,0.458574 0.88018,0.941756 1.381896,1.358278 0.975847,0.865433 1.945816,1.793663 3.053468,2.585582 0.540247,0.414204 1.08434,0.830202 1.631679,1.249273 0.551852,0.364221 1.105669,0.730919 1.663332,1.09941 1.014943,0.756491 2.496019,1.495501 3.848772,2.238649 l 1.030435,0.559301 c 0.141158,0.06036 -0.157049,-0.06309 -0.115779,-0.04619 l 0.02914,0.01281 0.05956,0.02621 0.120052,0.05208 0.240106,0.104161 0.48021,0.208321 1.931697,0.848491 c 0.63471,0.317036 1.325602,0.513591 2.010092,0.730567 l 2.057487,0.659043 c 1.384696,0.418654 2.831024,0.661634 4.24372,1.005182 1.430959,0.270922 2.884013,0.435897 4.314018,0.660343 1.440151,0.155837 2.879342,0.241788 4.29616,0.36568 1.421243,0.06588 2.826153,0.07811 4.206893,0.12042 1.379531,-0.0019 2.73333,-0.05412 4.054673,-0.07852 2.640356,-0.122439 5.147584,-0.312419 7.459314,-0.571714 2.310106,-0.260833 4.43045,-0.55476 6.301234,-0.870655 1.87326,-0.306156 3.503447,-0.616426 4.839497,-0.901578 2.67645,-0.561248 4.18957,-0.976826 4.18957,-0.976826 0,0 -1.42633,0.651099 -3.99475,1.634881 -1.28276,0.49881 -2.854607,1.068788 -4.676257,1.677543 -1.81952,0.617553 -3.895338,1.256029 -6.182778,1.894908 -2.289063,0.637343 -4.798903,1.241174 -7.483556,1.803278 -1.348873,0.244061 -2.734132,0.522648 -4.163063,0.754344 -1.434838,0.189151 -2.903242,0.411802 -4.409424,0.583289 -1.51124,0.113733 -3.052114,0.265921 -4.623339,0.349343 -1.575688,0.01268 -3.178272,0.08304 -4.803871,0.04046 -1.625792,-0.11913 -3.278638,-0.140087 -4.938719,-0.356348 L 57.92774,87.69329 c -0.838247,-0.124831 -1.681445,-0.234025 -2.509988,-0.478384 l -2.50884,-0.644813 -0.628001,-0.164107 -0.315454,-0.08312 -0.157727,-0.04156 -0.07869,-0.02031 -0.03888,-0.01033 c 0.01863,0.01025 -0.302053,-0.125246 -0.182342,-0.07411 l -1.10514,-0.387382 c -1.48495,-0.533266 -2.885793,-0.952428 -4.536815,-1.740257 -0.798759,-0.358424 -1.594016,-0.715994 -2.386024,-1.07049 -0.752632,-0.383727 -1.476305,-0.784378 -2.212109,-1.177422 -1.489281,-0.749858 -2.861052,-1.668059 -4.236827,-2.547556 -0.699929,-0.423128 -1.338623,-0.920688 -1.985342,-1.399365 -0.64467,-0.484743 -1.28353,-0.965217 -1.915894,-1.43954 -1.181287,-1.043934 -2.422524,-2.001132 -3.480793,-3.081326 -0.540026,-0.533472 -1.073813,-1.058574 -1.599139,-1.575049 -0.518323,-0.526474 -0.986759,-1.079618 -1.469371,-1.607383 -0.980855,-1.048777 -1.817765,-2.14356 -2.648422,-3.183154 -0.818185,-1.046261 -1.533336,-2.095971 -2.233261,-3.086307 -0.643033,-1.0153 -1.301425,-1.967543 -1.830119,-2.896758 -1.098735,-1.84338 -1.97998,-3.495619 -2.644643,-4.851032 -0.688158,-1.358568 -1.160761,-2.423129 -1.488185,-3.118052 -0.113789,-0.251233 -0.203212,-0.444292 -0.277931,-0.608648 l -11.76871,4.28346 z"/>
</svg>
