<?xml version="1.0" encoding="utf-8"?>
<!-- Generator: Adobe Illustrator 16.0.3, SVG Export Plug-In . SVG Version: 6.00 Build 0)  -->
<!DOCTYPE svg PUBLIC "-//W3C//DTD SVG 1.1//EN" "http://www.w3.org/Graphics/SVG/1.1/DTD/svg11.dtd">
<svg version="1.1" id="Layer_4" xmlns="http://www.w3.org/2000/svg" xmlns:xlink="http://www.w3.org/1999/xlink" x="0px" y="0px"
	 width="24px" height="24px" viewBox="0 0 24 24" enable-background="new 0 0 24 24" xml:space="preserve">
<polygon points="8.391,18.359 10.203,20.797 13.953,20.797 15.75,18.359 13.875,16.031 10.266,16.031 "/>
<polygon points="8.575,12.175 10.281,14.359 13.859,14.359 15.556,12.175 13.781,10.078 10.359,10.078 "/>
<polygon points="8.766,6.266 10.388,8.231 13.75,8.231 15.391,6.266 13.703,4.403 10.466,4.403 "/>
<polygon points="1.1,9.219 2.649,11.299 6.094,11.299 7.922,9.234 6.313,7.234 2.969,7.234 "/>
<polygon points="22.844,8.954 21.312,11.034 17.901,11.034 16.093,8.97 17.685,6.97 20.994,6.97 "/>
<polygon points="0.516,15.359 2.121,17.687 5.781,17.687 7.703,15.359 6.016,13.141 2.5,13.141 "/>
<polygon points="16.328,15.438 18.217,17.734 21.906,17.75 23.5,15.453 21.531,13.219 18,13.219 "/>
</svg>
