<?xml version="1.0" encoding="utf-8"?>
<!-- Generator: Adobe Illustrator 16.0.0, SVG Export Plug-In . SVG Version: 6.00 Build 0)  -->
<!DOCTYPE svg PUBLIC "-//W3C//DTD SVG 1.0//EN" "http://www.w3.org/TR/2001/REC-SVG-20010904/DTD/svg10.dtd">
<svg version="1.0" xmlns="http://www.w3.org/2000/svg" xmlns:xlink="http://www.w3.org/1999/xlink" x="0px" y="0px" width="1650px"
	 height="512px" viewBox="0 0 1650 512" enable-background="new 0 0 1650 512" xml:space="preserve">
<g id="Layer_2">
	<g>
		<path d="M455.766,71.109h25.695l51.638,102.051l50.649-102.051h25.819V227.73h-27.301v-97.646h-0.618
			l-37.678,75.195h-22.73l-37.678-75.195h-0.494v97.646h-27.301V71.109z"/>
		<path d="M643.245,118.095h19.111v70.684c0.115,7.47,2.594,13.159,7.437,17.069
			c4.727,4.111,10.81,6.166,18.246,6.166c7.437,0,13.577-2.055,18.419-6.166c4.726-3.91,7.147-9.6,7.264-17.069v-70.684h19.111
			v72.488c-0.231,11.53-4.526,20.679-12.885,27.446c-8.417,6.969-19.054,10.502-31.909,10.603
			c-12.625-0.101-23.175-3.634-31.649-10.603c-8.647-6.768-13.029-15.916-13.144-27.446V118.095z"/>
		<path d="M759.789,118.095h19.111v93.919h61.397v15.716h-80.508V118.095z"/>
		<path d="M862.669,132.909h-34.503v-14.813h88.204v14.813h-34.503v94.821h-19.197V132.909z"/>
		<path d="M932.516,118.095h19.111V227.73h-19.111V118.095z"/>
		<path d="M980.831,118.095h45.659c4.958,0,9.743,0.402,14.355,1.203c4.611,1.053,9.281,3.208,14.009,6.467
			c3.979,2.457,7.205,5.966,9.686,10.527c2.594,4.412,3.891,9.625,3.891,15.641c0,8.121-3.285,15.516-9.857,22.183
			c-6.746,7.019-16.604,10.628-29.575,10.828h-29.056v42.786h-19.111V118.095z M999.942,169.228h28.277
			c7.091-0.1,12.423-2.005,15.998-5.715c3.401-3.609,5.103-7.619,5.103-12.031c0-3.659-0.692-6.742-2.075-9.249
			c-1.441-2.256-3.459-4.035-6.054-5.339c-3.921-2.155-8.475-3.183-13.663-3.083h-27.585V169.228z"/>
		<path d="M1088.468,118.095h19.11v93.919h61.397v15.716h-80.508V118.095z"/>
		<path d="M1254.216,203.216h-47.82l-9.685,24.514h-20.236l45.832-109.635h15.998l45.832,109.635h-20.149
			L1254.216,203.216z M1248.768,188.478l-18.246-47.899h-0.346l-18.246,47.899H1248.768z"/>
		<path d="M1309.104,182.613l-37.963-64.518h20.234l26.721,48.651l26.721-48.651h20.235l-37.962,64.518v45.117
			h-17.986V182.613z"/>
		<path d="M1378.345,118.095h80.508v15.716h-61.397v31.281h52.404v14.738h-52.404v32.184h61.397v15.716h-80.508
			V118.095z"/>
		<path d="M1479.496,118.095h49.203c10.492,0,19.053,2.406,25.684,7.219c8.012,5.464,12.193,13.26,12.539,23.386
			c-0.232,14.889-8.361,25.016-24.387,30.379l29.229,48.651h-22.742l-26.029-46.847h-24.387v46.847h-19.109V118.095z
			 M1498.605,166.145h28.883c7.148-0.1,12.51-1.904,16.084-5.414c3.516-3.258,5.275-7.269,5.275-12.031
			c-0.115-5.715-2.219-9.851-6.312-12.407c-3.229-2.256-7.898-3.384-14.008-3.384h-29.922V166.145z"/>
		<path d="M455.766,266.109h70.292c14.988,0,27.218,3.438,36.69,10.312c11.446,7.807,17.418,18.943,17.913,33.408
			c-0.33,21.27-11.942,35.736-34.837,43.398l41.755,69.502h-32.49l-37.184-66.924h-34.837v66.924h-27.301V266.109z M483.067,334.752
			h41.261c10.211-0.143,17.87-2.721,22.978-7.734c5.022-4.654,7.536-10.383,7.536-17.188c-0.166-8.164-3.171-14.072-9.018-17.725
			c-4.613-3.223-11.284-4.834-20.013-4.834h-42.743V334.752z"/>
		<path d="M603.825,367.912c0-12.732,0.433-21.254,1.297-25.566c0.921-4.311,2.335-7.795,4.237-10.451
			c3.055-5.062,7.956-9.574,14.701-13.535c6.629-4.01,14.902-6.066,24.818-6.166c10.031,0.1,18.39,2.156,25.078,6.166
			c6.629,3.961,11.415,8.473,14.355,13.535c2.132,2.656,3.602,6.141,4.41,10.451c0.749,4.312,1.124,12.834,1.124,25.566
			c0,12.533-0.375,21.006-1.124,25.416c-0.808,4.412-2.278,7.947-4.41,10.604c-2.94,5.062-7.726,9.525-14.355,13.385
			c-6.688,4.01-15.046,6.115-25.078,6.316c-9.916-0.201-18.189-2.307-24.818-6.316c-6.745-3.859-11.646-8.322-14.701-13.385
			c-0.923-1.654-1.759-3.234-2.508-4.738c-0.692-1.553-1.269-3.508-1.729-5.865C604.257,388.918,603.825,380.445,603.825,367.912z
			 M623.022,367.912c0,10.779,0.46,18.072,1.383,21.883c0.807,3.811,2.45,6.893,4.929,9.248c2.017,2.256,4.669,4.086,7.956,5.49
			c3.228,1.654,7.091,2.48,11.587,2.48c4.554,0,8.503-0.826,11.847-2.48c3.17-1.404,5.708-3.234,7.61-5.49
			c2.478-2.355,4.179-5.438,5.102-9.248c0.865-3.811,1.297-11.104,1.297-21.883c0-10.777-0.432-18.121-1.297-22.031
			c-0.923-3.709-2.624-6.742-5.102-9.1c-1.902-2.256-4.44-4.135-7.61-5.639c-3.344-1.453-7.293-2.23-11.847-2.332
			c-4.497,0.102-8.359,0.879-11.587,2.332c-3.286,1.504-5.938,3.383-7.956,5.639c-2.479,2.357-4.123,5.391-4.929,9.1
			C623.483,349.791,623.022,357.135,623.022,367.912z"/>
		<path d="M718.812,313.096h48.858c12.394,0.1,21.705,2.807,27.931,8.121c6.283,5.363,9.426,12.457,9.426,21.279
			c0.115,4.512-1.124,8.824-3.718,12.934c-1.327,1.955-3.229,3.811-5.708,5.564c-2.479,1.855-5.534,3.535-9.166,5.039v0.301
			c6.86,1.555,12.048,4.688,15.565,9.398c3.286,4.863,4.929,10.152,4.929,15.867c-0.116,9.475-3.517,16.969-10.204,22.482
			c-6.63,5.766-14.903,8.648-24.818,8.648h-53.096V313.096z M737.922,327.908v31.357h27.585c6.975,0,12.106-1.58,15.393-4.738
			c3.343-2.906,5.016-6.566,5.016-10.979c0-4.41-1.673-8.145-5.016-11.203c-3.286-2.857-8.417-4.336-15.393-4.438H737.922z
			 M737.922,374.078v32.936h29.401c7.091-0.1,12.28-1.779,15.565-5.037c3.286-3.209,4.929-7.018,4.929-11.43
			c0-4.512-1.643-8.371-4.929-11.58c-3.286-3.158-8.474-4.787-15.565-4.889H737.922z"/>
		<path d="M825.151,367.912c0-12.732,0.433-21.254,1.297-25.566c0.921-4.311,2.335-7.795,4.237-10.451
			c3.055-5.062,7.956-9.574,14.701-13.535c6.629-4.01,14.902-6.066,24.818-6.166c10.031,0.1,18.39,2.156,25.078,6.166
			c6.629,3.961,11.415,8.473,14.355,13.535c2.132,2.656,3.602,6.141,4.41,10.451c0.749,4.312,1.124,12.834,1.124,25.566
			c0,12.533-0.375,21.006-1.124,25.416c-0.808,4.412-2.278,7.947-4.41,10.604c-2.94,5.062-7.726,9.525-14.355,13.385
			c-6.688,4.01-15.046,6.115-25.078,6.316c-9.916-0.201-18.189-2.307-24.818-6.316c-6.745-3.859-11.646-8.322-14.701-13.385
			c-0.923-1.654-1.759-3.234-2.508-4.738c-0.692-1.553-1.269-3.508-1.729-5.865C825.584,388.918,825.151,380.445,825.151,367.912z
			 M844.349,367.912c0,10.779,0.46,18.072,1.383,21.883c0.807,3.811,2.45,6.893,4.929,9.248c2.017,2.256,4.669,4.086,7.956,5.49
			c3.228,1.654,7.091,2.48,11.587,2.48c4.554,0,8.503-0.826,11.847-2.48c3.17-1.404,5.708-3.234,7.61-5.49
			c2.478-2.355,4.179-5.438,5.102-9.248c0.865-3.811,1.297-11.104,1.297-21.883c0-10.777-0.432-18.121-1.297-22.031
			c-0.923-3.709-2.624-6.742-5.102-9.1c-1.902-2.256-4.44-4.135-7.61-5.639c-3.344-1.453-7.293-2.23-11.847-2.332
			c-4.497,0.102-8.359,0.879-11.587,2.332c-3.286,1.504-5.938,3.383-7.956,5.639c-2.479,2.357-4.123,5.391-4.929,9.1
			C844.81,349.791,844.349,357.135,844.349,367.912z"/>
		<path d="M958.298,327.908h-34.503v-14.812h88.204v14.812h-34.503v94.822h-19.197V327.908z"/>
	</g>
</g>
<g id="Layer_4">
	<defs>
		<filter id="Adobe_OpacityMaskFilter" filterUnits="userSpaceOnUse" x="78.779" y="52.017" width="299.292" height="407.966">
			<feFlood  style="flood-color:white;flood-opacity:1" result="back"/>
			<feBlend  in="SourceGraphic" in2="back" mode="normal"/>
		</filter>
	</defs>
	<mask maskUnits="userSpaceOnUse" x="78.779" y="52.017" width="299.292" height="407.966" id="SVGID_1_">
		<g filter="url(#Adobe_OpacityMaskFilter)">
			<g>
				<path fill="#000000" d="M284.456,196.76c8.496,0,15.377,6.891,15.377,15.377c0,8.497-6.882,15.379-15.377,15.379
					c-8.496,0-15.378-6.882-15.378-15.379C269.077,203.651,275.959,196.76,284.456,196.76z"/>
				<polyline fill="none" stroke="#000000" stroke-width="12" stroke-miterlimit="10" points="118.385,196.574 94.164,207.614
					93.782,245.017 125.885,272.774 189.614,246.369 189.614,236.058 				"/>
				<polyline fill="none" stroke="#000000" stroke-width="12" stroke-miterlimit="10" points="339.254,183.696 367.946,167.913
					367.69,145.798 339.932,122.167 				"/>
				<path fill="none" stroke="#000000" stroke-width="12" stroke-miterlimit="10" d="M267.254,257.141l-10.501-2.871l-73.218-19.861
					l-16.767-20.82l-31.244,9.837l-0.97-1.357l-16.958-20.82c0,0,1.097-8.785,4.44-18.164l1.344-9.402l-4.815-2.217l-14.176-18.222
					l1.16-7.517l-8.392-2.613l5.786-20.527l13.881-44.825l13.31,0.572c0,0-0.587-3.472,5.491-5.491
					c6.064-2.026,12.437-2.892,12.437-2.892s18.288-6.533,28.611-8.934c10.323-2.401,33.088-6.975,33.088-6.975
					s13.588-2.026,19.087-2.026l17.633,1.16l20.919,8.971l36.53,14.455l12.73,13.009l23.755,17.582l1.992,40.013l-3.446,14.627
					l3.446,14.372l-19.888,47.226L311.955,244.8l-24.5,13.594L267.254,257.141z"/>
			</g>
		</g>
	</mask>
	<g mask="url(#SVGID_1_)">
		<g>
			<path d="M346.262,291.099c0,0-1.447-7.812-2.9-17.363c-1.446-9.535-8.097-22.265-8.097-22.265l18.808-17.927
				l0.279-9.258c0,0,7.334-7.738,6.535-14.141c-0.579-4.625-3.069-14.275-4.802-17.74c-1.732-3.474-11.915-11.278-11.915-11.278
				l-144.618,65.031l30.058,23.151l12.92,17.156l6.173,0.772l9.639,0.771l11.173,2.121l1.065,7.327l10.028,7.518
				c-2.606,0.581-8.963,4.632-8.963,4.632l-0.573,8.956c0,0-2.614,1.741-5.792,6.079c-3.178,4.339-3.759,11.327-3.759,11.327
				l18.507,20.049l17.737-7.715l6.945-2.308l9.25,11.565l5.201,5.614l5.762,5.266l7.082,5.282l9.477,7.893l7.812-4.051v-3.325
				l15.468-7.667l6.658,2.177l6.651-3.328c0,0-0.732-7.991-3.259-11.587c-3.122-4.443-8.282-12.725-8.282-12.725l-8.763-15.724
				l1.217-10.002l6.345-4.766c0,0-6.342-14.167-9.963-15.993C351.743,292.797,346.262,291.099,346.262,291.099z"/>
		</g>
		<g>
			<path d="M202.45,392.876l13.958-6.923c0-2.319-11.283-16.772-11.283-16.772
				c-3.759-4.634-12.723-11.283-12.723-11.283l-6.364-13.297c-0.867-3.192-10.417-24.006-10.417-24.006s2.033-0.292,12.73-7.81
				l9.849-11.288l26.013-17.247l-3.664-19.09l-5.224-34.525L100.14,250.033l-1.439,8.956l-19.144,8.633
				c0,0-1.964,9.746,0.351,18.266c0.717,2.643,4.432,11.582,6.568,15.728c4.092,7.943,12.805,12.903,12.805,12.903l9.829-1.154
				l6.079,17.349c0,0,2.019,12.436,3.472,17.648c1.447,5.196,6.938,20.525,6.938,20.525l-3.179,8.097l-8.097,6.651L114.028,390
				l-0.286,6.649c0,0-6.944,5.206-10.124,8.964c-3.186,3.761-2.321,15.035-2.321,15.035l14.463,13.604l21.114-8.973l9.837,11.57
				l5.491,5.203l4.424,4.292l4.547,4.094l15.607,9.544l9.551-4.044l2.019-6.652l17.713-6.941l3.759,3.76l7.238-4.047
				c0,0-0.293-5.784-1.16-10.122c-0.874-4.339-5.785-13.881-5.785-13.881L202.45,392.876z"/>
		</g>
		<polyline points="148.656,182.775 94.164,207.614 93.782,245.017 125.885,272.774 189.614,246.369
			189.614,230.635 		"/>
		<path d="M339.932,122.167c0,0,1.41,19.436,1.41,25.22c0,5.777-3.376,12.465-3.376,12.465l-3.08,26.247
			l33.061-18.186l-0.255-22.115L339.932,122.167z"/>
		<path d="M267.255,257.141l-10.501-2.871l-73.219-19.861l-16.767-20.82l-31.244,9.837l-0.97-1.357l-16.958-20.82
			c0,0,1.097-8.785,4.44-18.164l1.345-9.402l-4.816-2.217l-14.176-18.222l1.16-7.517l-8.392-2.613l5.786-20.527l13.882-44.825
			l13.31,0.572c0,0-0.587-3.472,5.491-5.491c6.064-2.026,12.436-2.892,12.436-2.892s18.288-6.533,28.611-8.934
			c10.323-2.401,33.088-6.975,33.088-6.975s13.588-2.026,19.087-2.026l17.633,1.16l20.919,8.971l36.53,14.455l12.73,13.009
			l23.755,17.582l1.992,40.013l-3.445,14.627l3.445,14.372l-19.888,47.226L311.956,244.8l-24.5,13.594L267.255,257.141z"/>
	</g>
</g>
</svg>
