<?xml version="1.0" encoding="utf-8"?>
<!-- Generator: Adobe Illustrator 16.0.3, SVG Export Plug-In . SVG Version: 6.00 Build 0)  -->
<!DOCTYPE svg PUBLIC "-//W3C//DTD SVG 1.1//EN" "http://www.w3.org/Graphics/SVG/1.1/DTD/svg11.dtd">
<svg version="1.1" id="Layer_2" xmlns="http://www.w3.org/2000/svg" xmlns:xlink="http://www.w3.org/1999/xlink" x="0px" y="0px"
	 width="1024px" height="1024px" viewBox="0 0 1024 1024" enable-background="new 0 0 1024 1024" xml:space="preserve">
<g>
	<path d="M441.972,477.801l0.086,15.568l-144.01,59.482l-53.662-46.566l-1.229,7.587l-39.949,18.022
		c0,0-4.088,20.342,0.725,38.12c1.51,5.513,9.256,24.161,13.726,32.815c8.544,16.587,26.714,26.924,26.714,26.924l20.502-2.395
		l12.695,36.193c0,0,4.223,25.941,7.243,36.831c3.02,10.854,14.487,42.846,14.487,42.846l-6.63,16.918l-16.893,13.861l-0.614,13.284
		l-0.614,13.873c0,0-14.487,10.877-21.116,18.723c-6.655,7.844-4.837,31.367-4.837,31.367l30.177,28.396l44.061-18.723l20.54,24.137
		l11.466,10.878l9.22,8.974l9.489,8.521l32.583,19.926l19.926-8.447l4.21-13.873l36.979-14.485l7.832,7.845l15.101-8.459
		c0,0-0.602-12.081-2.406-21.116c-1.817-9.073-12.08-28.986-12.08-28.986l-15.998-52.547l29.133-14.448
		c0-4.838-23.547-35.002-23.547-35.002c-7.844-9.675-26.567-23.549-26.567-23.549l-13.284-27.757
		c-1.792-6.666-21.73-50.09-21.73-50.09s4.249-0.615,26.568-16.292l20.552-23.572l54.301-35.996l-8.655-46.517l19.913,15.346
		l26.96,35.8l12.892,1.608l20.122,1.608l23.314,4.42l2.234,15.296l20.919,15.679c-5.45,1.228-18.71,9.687-18.71,9.687l-1.19,18.697
		c0,0-5.464,3.621-12.093,12.695c-6.63,9.035-7.832,23.62-7.832,23.62l38.623,41.84l37.002-16.095l14.512-4.825l19.3,24.138
		l10.853,11.724l12.031,10.988l14.781,11.024l19.767,16.476l16.304-8.446v-6.948l32.289-15.998l13.896,4.531l13.886-6.949
		c0,0-1.535-16.685-6.814-24.161c-6.505-9.281-17.285-26.568-17.285-26.568l-18.28-32.814l2.54-20.871l13.235-9.934
		c0,0-13.235-29.587-20.797-33.418c-7.551-3.806-18.992-7.354-18.992-7.354s-3.009-16.292-6.053-36.218
		c-3.021-19.9-16.894-46.468-16.894-46.468l39.237-37.42l0.59-19.324c0,0,15.309-16.145,13.652-29.514
		c-1.216-9.638-6.409-29.784-10.031-37.015c-2.174-4.346-10.668-11.946-17.126-17.323l-10.878,5.562l-17.396,41.533l-16.341,38.256
		l-23.657,47.659l-55.309,30.951l-45.916-2.603L441.972,477.801z"/>
</g>
<polygon points="274.672,397.805 242.655,412.5 242.04,480.675 301.621,532.201 423.888,481.497 423.888,472.94
	414.974,470.509 382.06,429.627 316.44,450.203 "/>
<polygon points="759.394,251.046 795.635,281.837 796.027,318.496 760.412,338.09 753.942,311.179 760.866,281.407
	"/>
<path d="M425.458,454.722l-37.138-45.868l-64.699,20.344l-31.491-38.391c0,0,1.596-13.652,8.569-33.222l3.83-27.095
	l-14.119-6.568l-25.88-33.172l3.045-19.57l-16.525-5.131l9.564-34.167l26.922-86.884l32.043,1.301c0,0-0.491-3.217-1.646-9.711
	c-0.196-1.117,5.366-2.86,8.742-3.781c11.663-3.131,21.657-4.764,21.657-4.764s41.004-14.302,62.563-19.312
	c21.534-4.997,65.608-13.75,65.608-13.75s26.47-4.039,37.95-4.039l34.964,2.271l41.018,17.544l76.117,30.14l25.708,26.346
	l46.627,34.499l3.904,78.007l-7.488,31.381l7.096,29.268l-40.293,95.564l-20.749,41.865l-46.309,25.708l-38.671-2.431
	L425.458,454.722z M605.022,416.085c0,17.74,14.364,32.104,32.091,32.104c17.729,0,32.093-14.364,32.093-32.104
	c0-17.715-14.364-32.092-32.093-32.092C619.387,383.994,605.022,398.37,605.022,416.085z"/>
</svg>
